<svg xmlns="http://www.w3.org/2000/svg" width="688" height="468" viewBox="0 0 688 468" font-family="ui-monospace, SFMono-Regular, Menlo, monospace">
<rect width="688" height="468" rx="14" fill="#f4f7f9"/>
<rect x="24" y="24" width="640" height="420" rx="6" fill="#ffffff" stroke="rgba(32,27,24,0.28)" stroke-width="1"/>
<text x="30" y="38" font-size="10" fill="rgba(32,27,24,0.7)">app</text>
<text x="658" y="438" font-size="9" text-anchor="end" fill="rgba(32,27,24,0.45)">608×388</text>
<rect x="40" y="40" width="608" height="56" rx="6" fill="#e8d5c4" stroke="rgba(32,27,24,0.28)" stroke-width="1"/>
<text x="46" y="54" font-size="10" fill="rgba(32,27,24,0.7)">header</text>
<text x="642" y="90" font-size="9" text-anchor="end" fill="rgba(32,27,24,0.45)">584×32</text>
<rect x="52" y="54" width="132" height="28" rx="6" fill="#c4d4e0" stroke="rgba(32,27,24,0.28)" stroke-width="1"/>
<text x="58" y="68" font-size="10" fill="rgba(32,27,24,0.7)">logo</text>
<rect x="446" y="56" width="190" height="24" rx="6" fill="#c4d4e0" stroke="rgba(32,27,24,0.28)" stroke-width="1"/>
<text x="452" y="70" font-size="10" fill="rgba(32,27,24,0.7)">nav</text>
<rect x="40" y="112" width="608" height="316" rx="6" fill="#e8d5c4" stroke="rgba(32,27,24,0.28)" stroke-width="1"/>
<text x="46" y="126" font-size="10" fill="rgba(32,27,24,0.7)">body</text>
<text x="642" y="422" font-size="9" text-anchor="end" fill="rgba(32,27,24,0.45)">608×316</text>
<rect x="40" y="112" width="168" height="316" rx="6" fill="#c4d4e0" stroke="rgba(32,27,24,0.28)" stroke-width="1"/>
<text x="46" y="126" font-size="10" fill="rgba(32,27,24,0.7)">sidebar</text>
<text x="202" y="422" font-size="9" text-anchor="end" fill="rgba(32,27,24,0.45)">168×316</text>
<rect x="40" y="112" width="168" height="34" rx="6" fill="#d4e0c4" stroke="rgba(32,27,24,0.28)" stroke-width="1"/>
<text x="46" y="126" font-size="10" fill="rgba(32,27,24,0.7)">menu-item-1</text>
<text x="202" y="140" font-size="9" text-anchor="end" fill="rgba(32,27,24,0.45)">168×34</text>
<rect x="40" y="154" width="168" height="34" rx="6" fill="#d4e0c4" stroke="rgba(32,27,24,0.28)" stroke-width="1"/>
<text x="46" y="168" font-size="10" fill="rgba(32,27,24,0.7)">menu-item-2</text>
<text x="202" y="182" font-size="9" text-anchor="end" fill="rgba(32,27,24,0.45)">168×34</text>
<rect x="40" y="196" width="168" height="34" rx="6" fill="#d4e0c4" stroke="rgba(32,27,24,0.28)" stroke-width="1"/>
<text x="46" y="210" font-size="10" fill="rgba(32,27,24,0.7)">menu-item-3</text>
<text x="202" y="224" font-size="9" text-anchor="end" fill="rgba(32,27,24,0.45)">168×34</text>
<rect x="40" y="238" width="168" height="34" rx="6" fill="#d4e0c4" stroke="rgba(32,27,24,0.28)" stroke-width="1"/>
<text x="46" y="252" font-size="10" fill="rgba(32,27,24,0.7)">menu-item-4</text>
<text x="202" y="266" font-size="9" text-anchor="end" fill="rgba(32,27,24,0.45)">168×34</text>
<rect x="224" y="112" width="424" height="316" rx="6" fill="#c4d4e0" stroke="rgba(32,27,24,0.28)" stroke-width="1"/>
<text x="230" y="126" font-size="10" fill="rgba(32,27,24,0.7)">content</text>
<text x="642" y="422" font-size="9" text-anchor="end" fill="rgba(32,27,24,0.45)">424×316</text>
<rect x="224" y="112" width="278.67" height="96" rx="6" fill="#d4e0c4" stroke="rgba(32,27,24,0.28)" stroke-width="1"/>
<text x="230" y="126" font-size="10" fill="rgba(32,27,24,0.7)">tile-a</text>
<text x="496.67" y="202" font-size="9" text-anchor="end" fill="rgba(32,27,24,0.45)">279×96</text>
<rect x="514.67" y="112" width="133.33" height="96" rx="6" fill="#d4e0c4" stroke="rgba(32,27,24,0.28)" stroke-width="1"/>
<text x="520.67" y="126" font-size="10" fill="rgba(32,27,24,0.7)">tile-b</text>
<text x="642" y="202" font-size="9" text-anchor="end" fill="rgba(32,27,24,0.45)">133×96</text>
<rect x="224" y="220" width="133.33" height="96" rx="6" fill="#d4e0c4" stroke="rgba(32,27,24,0.28)" stroke-width="1"/>
<text x="230" y="234" font-size="10" fill="rgba(32,27,24,0.7)">tile-c</text>
<text x="351.33" y="310" font-size="9" text-anchor="end" fill="rgba(32,27,24,0.45)">133×96</text>
<rect x="369.33" y="220" width="133.33" height="96" rx="6" fill="#d4e0c4" stroke="rgba(32,27,24,0.28)" stroke-width="1"/>
<text x="375.33" y="234" font-size="10" fill="rgba(32,27,24,0.7)">tile-d</text>
<text x="496.66" y="310" font-size="9" text-anchor="end" fill="rgba(32,27,24,0.45)">133×96</text>
<rect x="514.67" y="220" width="133.33" height="96" rx="6" fill="#d4e0c4" stroke="rgba(32,27,24,0.28)" stroke-width="1"/>
<text x="520.67" y="234" font-size="10" fill="rgba(32,27,24,0.7)">tile-e</text>
<text x="642" y="310" font-size="9" text-anchor="end" fill="rgba(32,27,24,0.45)">133×96</text>
<rect x="224" y="112" width="133.33" height="316" fill="none" stroke="rgba(43,84,166,0.55)" stroke-width="1" stroke-dasharray="3 3"/>
<rect x="369.33" y="112" width="133.33" height="316" fill="none" stroke="rgba(43,84,166,0.55)" stroke-width="1" stroke-dasharray="3 3"/>
<rect x="514.67" y="112" width="133.33" height="316" fill="none" stroke="rgba(43,84,166,0.55)" stroke-width="1" stroke-dasharray="3 3"/>
<rect x="224" y="112" width="424" height="96" fill="none" stroke="rgba(43,84,166,0.55)" stroke-width="1" stroke-dasharray="3 3"/>
<rect x="224" y="220" width="424" height="96" fill="none" stroke="rgba(43,84,166,0.55)" stroke-width="1" stroke-dasharray="3 3"/>
</svg>
